<svg xmlns="http://www.w3.org/2000/svg" viewBox="0 0 84.27 43.95"><defs></defs><title>daily</title><path d="M84.85,21.57h15.46a18.28,18.28,0,0,1,1.08-1.67,9.1,9.1,0,0,1,.82-1.06,0.63,0.63,0,0,1,.42-0.14,5.85,5.85,0,0,1,1.53.68q1.27,0.68,2.94,1.81a24.18,24.18,0,0,1,2,1.43,0.88,0.88,0,0,1,.33.63q0,0.71-1.83,1.46V51.65q0,2.16,0,3l0,1.6a0.9,0.9,0,0,1-.31.73,7.69,7.69,0,0,1-1.86.78,11.15,11.15,0,0,1-3.52.52,0.56,0.56,0,0,1-.45-0.14,1.18,1.18,0,0,1-.12-0.66V53.62h-17v3.29a0.78,0.78,0,0,1-.35.73,12.37,12.37,0,0,1-1.65.68,11.49,11.49,0,0,1-3.74.47,0.35,0.35,0,0,1-.42-0.37l0.09-2.21q0.09-2.3.09-4.18v-28q0-2.87-.09-4.89A46.4,46.4,0,0,1,84.85,21.57ZM84.43,36.09h17v-13H85.09a1,1,0,0,1-.66.42V36.09Zm17,1.55h-17V52.07h17V37.64Z" transform="translate(-78.27 -16.59)"/><path d="M143.79,19.83H152a20,20,0,0,1,1.36-2.33,1.18,1.18,0,0,1,1-.4q0.64,0,3.36,2.07t2.73,2.63q0,0.56-1.79,1.27-0.38,4.56-.71,6.18a5.94,5.94,0,0,1-1,2.51,5.1,5.1,0,0,1-2.21,1.48,8.32,8.32,0,0,1-3.05.59,1.15,1.15,0,0,1-1.36-1.22,2.76,2.76,0,0,0-.92-2.23,9,9,0,0,0-3.08-1.43,0.54,0.54,0,0,1-.47-0.31,0.88,0.88,0,0,1,.8-0.16,23.64,23.64,0,0,0,4.56-.24,1.29,1.29,0,0,0,.94-0.89,16.79,16.79,0,0,0,.38-2.4q0.19-1.74.24-3.57h-8.55A2.45,2.45,0,0,1,143,22v14.1h10.29q0.75-1.17,1-1.48a0.74,0.74,0,0,1,.61-0.31,9.28,9.28,0,0,1,3.05,1.41q2.4,1.41,2.89,1.81a1.14,1.14,0,0,1,.49.89,0.87,0.87,0,0,1-.89.68q-0.89.19-1.6,2.12A26.75,26.75,0,0,1,154,49.49a28.45,28.45,0,0,0,7.94,4.13,0.7,0.7,0,0,1,.61.42,1.79,1.79,0,0,1-1,.73,6.13,6.13,0,0,0-1.83,1.39A15.06,15.06,0,0,0,157.8,59a0.69,0.69,0,0,1-.59.38,2.94,2.94,0,0,1-1.27-.66,33.88,33.88,0,0,1-2.7-2.28,27.39,27.39,0,0,1-3.06-3.22A34.24,34.24,0,0,1,143,57.9v0.52a1.15,1.15,0,0,1-.14.63,2.4,2.4,0,0,1-.92.54,12.75,12.75,0,0,1-2.21.63,11.39,11.39,0,0,1-2,.31c-0.19,0-.28-0.16-0.28-0.47l0.09-2.21q0.09-2.26.09-4.09V29.37h-7.14v7.19q6.44-1.22,6.53-1.22c0.22,0,.33.06,0.33,0.19a1,1,0,0,1-.61.52l-6.25,3.43V54.33a6.52,6.52,0,0,1-.73,3.5,4.35,4.35,0,0,1-2.61,1.62,12.15,12.15,0,0,1-3.1.52,1.21,1.21,0,0,1-1.36-1.18,3.55,3.55,0,0,0-.92-2.3,4.66,4.66,0,0,0-2-1.1,2,2,0,0,1-1.22-.56q0-.21.61-0.21l1.93,0a7,7,0,0,0,3.15-.45,1.77,1.77,0,0,0,.71-1.62v-10q-2.59,1.41-3.48,2a3.58,3.58,0,0,1-1.08.63,0.26,0.26,0,0,1-.26-0.19q-0.07-.19-0.68-2.21t-1.08-4.32q3.76-.52,6.58-1V29.37h-4a6.7,6.7,0,0,0-2,.28l-0.8-2a13.72,13.72,0,0,0,2.35.19H125v-6q0-2.87-.19-5.08,2,0.09,3.95.31a20.28,20.28,0,0,1,2.26.31,0.93,0.93,0,0,1,.42.26,0.54,0.54,0,0,1,.14.35,1.38,1.38,0,0,1-1,1.08v8.74h0.89a26.24,26.24,0,0,1,1.46-2.56,1.14,1.14,0,0,1,.71-0.59,4.75,4.75,0,0,1,1.53,1,27.34,27.34,0,0,1,2.56,2.28V20.77q0-2.35-.09-4.18A15.06,15.06,0,0,1,143.79,19.83ZM143,37.64V56.77a26.38,26.38,0,0,0,5.45-6A30.34,30.34,0,0,1,145,37.64h-2Zm7.85,9a30.41,30.41,0,0,0,2.77-9h-7.38A20,20,0,0,0,150.84,46.62Z" transform="translate(-78.27 -16.59)"/></svg>