<svg xmlns="http://www.w3.org/2000/svg" viewBox="0 0 91.13 44.41"><title>explore</title><path d="M234.13,28.76h-3.76a6.71,6.71,0,0,0-2,.28l-0.8-2a13.72,13.72,0,0,0,2.35.19h4.23V21.9q0-2.87-.19-5.08a30.51,30.51,0,0,1,4.11.49,5.86,5.86,0,0,1,2.07.63,0.83,0.83,0,0,1,.31.61,0.86,0.86,0,0,1-1,.8v7.85H240a20.09,20.09,0,0,1,1.15-2.37,1.21,1.21,0,0,1,.85-0.73q0.4,0,2,1.88a6.88,6.88,0,0,1,1.65,2.33q0,0.45-.85.45h-5.45v6.86l5.22-1.27a3.31,3.31,0,0,1,.68-0.09c0.17,0,.26,0,0.26.09a1.94,1.94,0,0,1-1,.8l-5.17,3.24V54.33a8.54,8.54,0,0,1-.28,2.4,3.17,3.17,0,0,1-1,1.55,5.58,5.58,0,0,1-2.16,1,9.82,9.82,0,0,1-2.4.38q-1,0-1.06-1.32a3.46,3.46,0,0,0-1.11-2.4,5.2,5.2,0,0,0-2.4-1.15q-1.43-.31-1.43-0.54c0-.16.19-0.23,0.56-0.23l2.16,0a7,7,0,0,0,3.13-.45,1.8,1.8,0,0,0,.73-1.67V41.83q-1.41.94-2.68,1.9a6.17,6.17,0,0,1-1.46,1,0.32,0.32,0,0,1-.28-0.14,21.17,21.17,0,0,1-.68-2q-0.59-1.88-1.39-4.61,2.35-.28,6.49-1.13v-8Zm25.33,10.9h4.94q1.83-3.48,2.58-3.48,0.56,0,2.8,2T272,40.68q0,0.54-1.17.54h-9.78a20.72,20.72,0,0,0,4.25,6,16.91,16.91,0,0,0,6.42,3.6,0.88,0.88,0,0,1,.75.52,1,1,0,0,1-.87.54,5.63,5.63,0,0,0-2.16,1.64A6.2,6.2,0,0,0,267.88,56a0.56,0.56,0,0,1-.52.52q-0.75,0-2.77-2.19a16.44,16.44,0,0,1-3.24-5.4,24.62,24.62,0,0,1-1.41-7.68h-0.47V53.53q0,1.55.09,3.29l0,1.6a1,1,0,0,1-.31.8,5.16,5.16,0,0,1-1.74.66,10,10,0,0,1-2.47.38,2,2,0,0,1-1.15-.16,1.07,1.07,0,0,1-.12-0.59l0-1.83q0.09-1.88.09-4.23V46.81a29.79,29.79,0,0,1-8.22,7.29q-4.51,2.63-5.45,2.63a0.25,0.25,0,0,1-.28-0.28,1.13,1.13,0,0,1,.56-0.71,34.88,34.88,0,0,0,6.6-6.72,29.41,29.41,0,0,0,4.25-7.8H246a2.91,2.91,0,0,0-1.69.52l-1.22-2.21a19,19,0,0,0,2.35.14H254V36.61q0-2.35-.09-4.18,2.4,0.14,4.14.4a8.06,8.06,0,0,1,2.09.47,0.67,0.67,0,0,1,.35.61,1.4,1.4,0,0,1-1,.87v4.89ZM252,24a32.12,32.12,0,0,1,4.28,1.81q2.07,1.06,2.07,1.72,0,0.47-1,.59a5.06,5.06,0,0,0-2.47,1.39,57.11,57.11,0,0,1-7.52,5.66A13.7,13.7,0,0,1,243.63,37a0.12,0.12,0,0,1-.14-0.14,1.16,1.16,0,0,1,.47-0.52,23.51,23.51,0,0,0,4.84-5.45A25.07,25.07,0,0,0,252,24Zm-1.74-3.71h13.68q1.32-2.44,2.07-2.44a3.36,3.36,0,0,1,1.41.75,31.75,31.75,0,0,1,2.47,2q1.43,1.29,1.93,1.83a1.56,1.56,0,0,1,.49,1q0,0.85-1.27.85a6.19,6.19,0,0,1-.75-0.07,8.82,8.82,0,0,0-1.18-.07,7.86,7.86,0,0,0-5,1.93q5.31,2.44,5.31,5.5a3.41,3.41,0,0,1-1,2.42,2.94,2.94,0,0,1-2.12,1.06,2.78,2.78,0,0,1-1.86-.63,2.12,2.12,0,0,1-.8-1.57,9.68,9.68,0,0,0-1.39-4.21,12.19,12.19,0,0,0-3.46-3.74,1.24,1.24,0,0,1-.56-0.61c0-.12.09-0.19,0.28-0.19a21.23,21.23,0,0,1,4.79,1.6,33.52,33.52,0,0,0,.89-3.9H250.63a6.87,6.87,0,0,1,.09,1.13,4.58,4.58,0,0,1-1.1,3.2,3.22,3.22,0,0,1-4.42.61,2,2,0,0,1-.78-1.69,2.82,2.82,0,0,1,1.25-2.37,7.25,7.25,0,0,0,1.81-1.79,3.66,3.66,0,0,0,.56-2l-0.09-1.41q0-.42.28-0.42a2.38,2.38,0,0,1,1,1.15A11.17,11.17,0,0,1,250.25,20.25Z" transform="translate(-227.55 -16.54)"/><path d="M285.6,47.8A42.71,42.71,0,0,1,289.31,50a21.73,21.73,0,0,1,1.81,1.29,0.81,0.81,0,0,1,.31.59q0,0.31-.85.35a5.35,5.35,0,0,0-1.55.31,7.45,7.45,0,0,0-1.6.87,58.47,58.47,0,0,1-8.53,4.93,20.23,20.23,0,0,1-4.07,1.55h0a0.8,0.8,0,0,1,.38-0.42,34.67,34.67,0,0,0,6.11-5.38A35.24,35.24,0,0,0,285.6,47.8Zm7.71-23.69H283.2a2.92,2.92,0,0,0-1.69.52l-1.22-2.21a19,19,0,0,0,2.35.14H293.3V20.72q0-2.35-.09-4.18,7.43,0.52,7.43,1.65,0,0.52-1.32,1v3.38h5.88q2-4,2.73-4,0.52,0,3.15,2.07t2.63,2.77q0,0.7-1.08.71h-13.3v4.37h9.78a21.59,21.59,0,0,1,1.36-2.07,1.63,1.63,0,0,1,1-.8,4.1,4.1,0,0,1,1.6.73,30.36,30.36,0,0,1,2.8,2,18.23,18.23,0,0,1,2.21,2,2,2,0,0,1,.59,1.17,0.92,0.92,0,0,1-.47.8,2,2,0,0,1-1.29.24q-0.82-.07-1.53-0.07a7.69,7.69,0,0,0-3.59.75,8.89,8.89,0,0,0-2.7,2.3,1.23,1.23,0,0,1,.38.78c0,0.23-.16.35-0.47,0.35a1.65,1.65,0,0,1-.4-0.07,3.15,3.15,0,0,0-.78-0.07,9.77,9.77,0,0,0-3.24.66l-3.85,1.41a22.5,22.5,0,0,1,8.67,2.82q3.22,2,3.22,4a2.9,2.9,0,0,1-1,2.16,3.13,3.13,0,0,1-2.21.94,2.08,2.08,0,0,1-1.39-.61,2.85,2.85,0,0,1-.89-1.46,7,7,0,0,0-.68-1.69l-5.55.66a1.76,1.76,0,0,1-.94,1v9.35Q300,59,298,60a10.62,10.62,0,0,1-4.7,1,0.86,0.86,0,0,1-1-.71,4.42,4.42,0,0,0-1.1-2.61,4.78,4.78,0,0,0-2.11-1.22A3.88,3.88,0,0,1,287.8,56a6.59,6.59,0,0,1,1.81-.09,17.21,17.21,0,0,0,2.87-.19,2.15,2.15,0,0,0,1.39-.63,2.35,2.35,0,0,0,.33-1.39V46.34q-9.78,1.32-11.47,2a1.56,1.56,0,0,1-.49.09,0.36,0.36,0,0,1-.33-0.26q-0.12-.26-0.82-2.35a12.06,12.06,0,0,1-.71-2.63,0.45,0.45,0,0,1,.56-0.49,16.21,16.21,0,0,0,2.19.14,8.94,8.94,0,0,0,2.3-.31A20.93,20.93,0,0,0,289,41q2.44-1.24,6.11-3.45a68.49,68.49,0,0,0-9.31,2.54,1.2,1.2,0,0,1-.45.09,0.51,0.51,0,0,1-.4-0.33,18.6,18.6,0,0,1-.8-2.4,16.2,16.2,0,0,1-.61-2.4c0-.22.27-0.33,0.82-0.33a7.59,7.59,0,0,0,2.16-.42,11,11,0,0,0,3.31-2A23,23,0,0,0,292.41,30h-10a7.75,7.75,0,0,1,.09,1.17,4.83,4.83,0,0,1-1.25,3.38A3.83,3.83,0,0,1,278.38,36a3.47,3.47,0,0,1-2.51-.82A2.6,2.6,0,0,1,275,33.2a2.49,2.49,0,0,1,1.27-2,11.81,11.81,0,0,0,2.66-2.28,3.35,3.35,0,0,0,.68-2l-0.19-1.46c0-.34.12-0.52,0.35-0.52a2.37,2.37,0,0,1,1.11,1.25A12.7,12.7,0,0,1,282,28.48H293.3V24.11Zm15.18,10.81Q309,32.85,309.61,30H299a2.78,2.78,0,0,1,1.13,1.22q0,0.33-.56.28h-0.42a5.29,5.29,0,0,0-1.74.38L293,33.6q-3.29,1.27-4.32,1.79l0,0.28,9.78-.28a54.15,54.15,0,0,0,5.64-4.23A31.07,31.07,0,0,1,308.49,34.92Zm-8.55,3.95q-4.46,1.6-11,4.28l0,0.28,16.45-.14A18.72,18.72,0,0,0,299.93,38.87Zm2.63,10.34a23.34,23.34,0,0,1,3.9.66A27.4,27.4,0,0,1,311,51.2a9.54,9.54,0,0,1,2.54,1.5,5.61,5.61,0,0,1,1.39,1.74,3.86,3.86,0,0,1,.45,1.67,3.53,3.53,0,0,1-1,2.44A3.18,3.18,0,0,1,312,59.64a2.45,2.45,0,0,1-1.46-.56,2.62,2.62,0,0,1-1-1.5,12,12,0,0,0-2.33-4.75,14.74,14.74,0,0,0-4.68-3.24,0.41,0.41,0,0,1-.28-0.26C302.23,49.25,302.34,49.21,302.56,49.21Z" transform="translate(-227.55 -16.54)"/></svg>