<?xml version="1.0" encoding="utf-8"?>
<!-- Generator: Adobe Illustrator 19.2.0, SVG Export Plug-In . SVG Version: 6.00 Build 0)  -->
<svg version="1.1" id="图层_1" xmlns="http://www.w3.org/2000/svg" xmlns:xlink="http://www.w3.org/1999/xlink" x="0px" y="0px"
	 viewBox="0 0 241 60" style="enable-background:new 0 0 241 60;" xml:space="preserve">
<style type="text/css">
	.st0{enable-background:new    ;}
	.st1{fill:#3280ED;}
	.st2{font-family:'DecoTypeNaskh';}
	.st3{font-size:50px;}
</style>
<g class="st0">
	<path class="st1" d="M27.2,23.4c0,0.4-0.9,1.2-2.7,2.4s-2.6,1.8-2.6,2c0,0.4,0.5,1.3,0.6,1.8c0.3,2.1,0.4,4.4,0.4,6.6
		c0,3.4-0.2,7.3-0.6,11.7c-0.1,0.6-1.8,2.1-4.9,4.5c-0.8,0.6-1.4,1.1-1.8,1.5c-0.8,0.7-1.6,1.3-2.5,2.1c-1.1,0.8-2,1.3-2.6,1.3H10
		c-2.8-1.1-4.9-2.2-6.4-3.5c-2-1.7-2.9-3.8-2.9-6.3c0-2.2,0.4-3.8,1.1-5.1c1.2-2.2,4.1-4.9,8.3-8.2c0.2-0.2,1.2-0.9,2.9-1.9
		c1-0.7,1.6-1.2,1.6-1.5v0c0-0.5-1.1-0.9-3.1-1.2c-1.3-0.1-2.6-0.2-3.8-0.2c-0.8,0-2.4,0.2-2.6,0.2c-0.2,0-0.4,0-0.4-0.2
		c0-0.1,0.8-0.8,2.2-2c1.5-1.3,2.4-2.1,2.6-2.4c0,0,0.1-0.1,0.2-0.3s1.2-1.3,3.4-3.5c0.1-0.2,0.6-0.7,1.5-1.4c0.7-0.6,1-1.1,1-1.6
		c0-0.4-0.4-0.5-1.1-0.5H4.3c-0.2-0.1-0.5-0.2-0.8-0.2c-0.7,0-1.2,0.5-1.9,1.4c-0.6,1-1.1,1.4-1.4,1.4h0c-0.1-0.1-0.1-0.1-0.1-0.2v0
		c0-0.4,0.1-0.8,0.4-1.2c0.2-0.4,0.6-0.7,0.8-1.1c0.6-1,1.5-2.3,2.4-3.8c0.7-1,1.2-2,1.9-3c0.9-1.3,1.7-2.2,2.5-2.7h0.1L8.2,8.3
		c0,0.1,0,0.3-0.1,0.5l-1.6,2.8v0.1c0,0,0,0.1,0,0.2c0,0.3,0,0.5,0.2,0.5c1.8,0.1,3.4,0.1,4.8,0.1h0c0.8,0,2.5-0.1,3.1-0.1
		c0.6,0,2,0.1,2.6,0.1c1,0,3.2-0.1,4.1-0.1h2.1c0.1,0,0.1,0.1,0.1,0.3c-0.5,0.4-1.1,1-2,2c-0.6,0.9-2.3,2.8-5.2,5.6
		c-0.9,0.8-2.1,2-3.7,3.8v0c0,0.2,0.2,0.4,0.8,0.4l5.2,0.8c0.3,0,0.7,0.2,1.2,0.7c0.5,0.4,1,0.6,1.2,0.6c0,0,0.1,0,0.3,0l1.7-1.2
		c0.4,0,1-0.4,1.9-1C25.9,23.7,26.6,23.4,27.2,23.4z M16.9,41.2v-1.9v-4.6c-0.1-1.9-0.5-2.9-1-2.9c-0.5,0-1,0.2-1.7,0.8
		c-1,0.8-1.5,1.1-1.7,1.2c-0.1,0.1-0.1,0.1-0.2,0.2c-2.4,1.8-3.9,3.3-4.7,4.3c-1.4,1.7-2.1,3.6-2.1,5.8c0,1.9,0.7,3.5,2.1,4.8
		c0.8,0.7,2.3,1.6,4.6,2.8c1.1,0.6,2,0.8,2.5,0.8c1.3,0,2-1.8,2-5.2v-1c0-0.2,0-1,0-2.5C16.8,42.2,16.9,41.3,16.9,41.2z"/>
	<path class="st1" d="M40.5,49.5c0.8-1.6,1.9-3.2,1.9-4.8c0-0.3,0.1-2.2,0.1-5.5c0.1-3.1,0.1-4.9,0.1-5.5v-2.3
		c0-3.4-0.4-5.6-1.4-6.2c-0.8-0.4-1.9-1-3.4-1.7h-0.2c-1.1,0-2.1,1.8-2.1,3v14.9c0,0.2,0.5,0.5,1.4,0.9c0.9,0.4,1.4,0.8,1.4,1.2
		c0,0.3-0.1,0.6-0.4,1l-3,2.9c-0.2,0.1-0.4,0.2-0.5,0.2c-0.2,0-1.6-0.7-4-2.1c-0.1-0.1-0.5-0.2-0.9-0.6v0c0-0.3,0.8-1.7,0.8-2.1
		v-2.5c0-1.4,0-3.5,0.1-6.2c0-2.8,0.1-4.9,0.1-6.3c0-2.5-0.1-5.4-0.2-8.8c0-0.9-0.5-1.8-1.6-2.5c-1-0.8-1.5-1.2-1.5-1.3v-0.2
		c1.6-1.8,2.9-2.6,3.9-2.6c0.4,0,0.9,0.2,1.4,0.6c0.6,0.5,1,0.7,1.2,0.7c0.4,0,0.8-0.4,1.1-1.2c1.9-1.9,3.3-3.1,4.2-3.7h0.3v0.2
		c-1.2,1.5-2.1,2.9-2.6,4c-0.5,1.2-0.9,2.8-0.9,4.6c0,0-0.1,0.5-0.1,1.5c0,1,0,1.5,0,1.7v2.6c0,0.2,0.1,0.2,0.3,0.2l2.8-2.1
		c1.4-1.1,2.1-1.6,2.5-1.6h0c3.9,1,5.9,2.6,6.1,4.8c0,0.1,0.1,0.8,0.1,2c0.1,1.2,0.1,2,0.1,2.3v1c0-0.2-0.1,2.4-0.2,8
		c-0.1,5.1-2.9,9.9-8,14.6c-0.8,0.7-1.4,1.2-2,1.6h-0.2C37.3,53.6,38.4,52.1,40.5,49.5z"/>
	<path class="st1" d="M63,44.1c0,0.3-0.6,1-1.8,2.2c-1.1,1.1-2,1.7-2.4,1.7c-0.6,0-1.3-0.3-2.2-1c-0.6-0.5-1.2-1-1.9-1.5
		c-0.1-0.2-0.4-0.7-0.7-1.2v-2.3c0-1.4,0-3.6,0.1-6.5c0.1-2.8,0.1-5,0.1-6.4v-1.4c0-1.1,0-2-0.1-2.8c-0.1,0-0.4-0.3-1.1-0.8
		c-0.5-0.3-0.8-0.7-0.8-1c0-0.5,0.7-1.1,2-1.9c1.3-0.8,2-1.4,2-1.9v-0.2c-0.6-0.4-1.1-0.9-1.6-1.4c-0.8-0.7-1.2-1.2-1.2-1.6
		c0-0.5,0.6-1.2,1.6-2.1c1.1-1,1.9-1.5,2.2-1.5h0.2c0.8,0.6,1.5,1.2,2.3,1.9c0.8,0.6,1.2,1.1,1.2,1.3c0,0.5-1.1,1.7-3.4,3.3v0.2
		c0,0.3,0.6,0.8,1.8,1.3c1.2,0.6,1.9,1.1,1.9,1.5c0,0.2-0.2,0.7-0.8,1.2c-0.5,0.6-0.8,1.1-0.9,1.6v0.7c0,0.2,0,1.3-0.1,3.3
		c-0.1,2-0.1,3.1-0.1,3.4V41c0.1,0.5,0.8,1.1,1.9,1.7S63,43.7,63,44.1z"/>
	<path class="st1" d="M78,49.5c0.8-1.6,1.9-3.2,1.9-4.8c0-0.3,0.1-2.2,0.1-5.5c0.1-3.1,0.1-4.9,0.1-5.5v-2.3c0-3.4-0.4-5.6-1.4-6.2
		c-0.8-0.4-1.9-1-3.4-1.7h-0.2c-1.1,0-2.1,1.8-2.1,3v14.9c0,0.2,0.5,0.5,1.4,0.9c0.9,0.4,1.4,0.8,1.4,1.2c0,0.3-0.1,0.6-0.4,1
		l-3,2.9c-0.2,0.1-0.4,0.2-0.5,0.2c-0.2,0-1.6-0.7-4-2.1c-0.1-0.1-0.5-0.2-0.9-0.6v0c0-0.3,0.8-1.7,0.8-2.1v-2.5
		c0-1.4,0-3.5,0.1-6.2c0-2.8,0.1-4.9,0.1-6.3c0-2.5-0.1-5.4-0.2-8.8c0-0.9-0.5-1.8-1.6-2.5c-1-0.8-1.5-1.2-1.5-1.3v-0.2
		c1.6-1.8,2.9-2.6,3.9-2.6c0.4,0,0.9,0.2,1.4,0.6c0.6,0.5,1,0.7,1.2,0.7c0.4,0,0.8-0.4,1.1-1.2c1.9-1.9,3.3-3.1,4.2-3.7h0.3v0.2
		c-1.2,1.5-2.1,2.9-2.6,4c-0.5,1.2-0.9,2.8-0.9,4.6c0,0-0.1,0.5-0.1,1.5c0,1,0,1.5,0,1.7v2.6c0,0.2,0.1,0.2,0.3,0.2l2.8-2.1
		c1.4-1.1,2.1-1.6,2.5-1.6h0c3.9,1,5.9,2.6,6.1,4.8c0,0.1,0.1,0.8,0.1,2c0.1,1.2,0.1,2,0.1,2.3v1c0-0.2-0.1,2.4-0.2,8
		c-0.1,5.1-2.9,9.9-8,14.6c-0.8,0.7-1.4,1.2-2,1.6h-0.2C74.8,53.6,75.9,52.1,78,49.5z"/>
	<path class="st1" d="M113.2,43.2c0,0.5-0.6,1.4-1.9,2.7c-1.1,1.2-2,1.8-2.4,2.1h-0.2c-0.7,0-1.3-0.4-2.1-1.2
		c-0.4-0.6-0.8-1.1-1.2-1.6l-0.4-2.3h-0.3l-1.7,1.7c-1.9,1.9-3.1,2.9-3.7,2.9c-0.5,0-2-0.4-4.2-1.2c-2.3-0.8-3.4-1.4-3.4-1.5
		c0-0.8,1.1-1.8,1.1-2.4V30c0-2.2,0-3.3-0.1-3.4l-0.4-0.4l-2.1-1C90.1,25.2,90,25,90,24.9c0-0.4,0.6-1.2,1.8-2.2
		c1.2-1.1,2-1.6,2.4-1.6c0.2,0,0.8,0.2,1.9,0.7c1,0.5,1.6,0.7,1.8,0.8l0.1,0.2v4.3c0,1.2,0,3.2-0.1,5.8c0,2.6,0,4.6,0,5.8v0.6
		c0,0.3,0.1,0.9,0.2,1.9c0.5,0.2,0.9,0.5,1.4,0.8c1.1,0.2,2,0.6,3,0.9c0.1,0,0.6-0.4,1.4-1.2c0.8-0.8,1.2-1.3,1.2-1.5l0.1-0.2V26.5
		c0-0.5-0.1-0.7-0.4-0.8l-1.9-1c-0.2-0.1-0.3-0.2-0.3-0.4c0-0.1,0.1-0.2,0.1-0.3l3.9-3.2c0.1-0.1,0.4-0.2,0.8-0.2c0,0,0.1,0,0.4,0.1
		l3.2,1.6c0.2,0.1,0.3,0.2,0.3,0.5c0,0.4-1.1,1.7-1.1,2.9c-0.3,3.9-0.4,8.1-0.4,12.8c0,1.2,0.1,2.2,0.5,3.1c0.4,1.2,1.2,1.8,2.1,1.8
		c0.4,0,0.9-0.4,1.1-0.4V43.2z"/>
</g>
<text transform="matrix(1 0 0 1 114.7306 47.395)" class="st1 st2 st3"> </text>
<g>
	<path class="st1" d="M160.9,28.1c0,2.8-0.1,4.7-0.4,6c-0.4,2.1-1.2,3.9-2.6,5.2c-2,1.8-4.5,3.9-7.6,6.4l-1.3,1.2
		c-0.6,0.5-1.1,0.8-1.6,0.8h-0.6c-1.3-0.3-3.4-0.7-6.2-1.1c-1.8-0.2-4.6-0.6-8.1-1.2v-0.1c0-0.5,1-1.7,1.1-2.2
		c0.2-1.3,0.3-4.7,0.4-10.1c0-0.2,0.1-0.8,0.1-1.7c0-0.7,0-1.6,0-2.5s0-2.3-0.2-4.1c-0.1-1.8-0.1-3.2-0.1-4c0-0.8,0.5-1.5,1.4-2.1
		c1-0.6,1.4-1,1.4-1.1c0-0.3-0.8-0.5-2.4-0.7c-1.2,0-2.4-0.1-3.7-0.2c-3.5-0.2-5.3-1.1-5.3-2.6v-0.3c0-0.5,0.1-1,0.2-1.4
		c0.1-0.5,0.7-1.5,1.8-2.8c1.2-1.4,1.9-2.1,2.3-2.1c0.1,0,0.4,0,1,0c0,0.5-0.9,1.4-0.9,2v0.1c0,1.5,1.1,2.3,3.5,2.5
		c3,0.2,5.2,0.3,6.7,0.4c2.7,0.1,5.4,0.1,8,0.2c3.2,0.2,5.9,0.5,8.1,1c0.5,0.2,1.1,0.7,2,1.2c1.2,1.4,2,2.9,2.3,4.6
		c0.1,1.8,0.2,3.5,0.2,5.2c0.1,0.4,0.1,1.3,0.1,2.8V28.1z M155.3,32.4c0-3.6-0.1-6.6-0.5-9.1c0-0.6-0.1-1.6-0.4-3
		c-0.7-1.5-2.1-2.6-4.4-3.1c-1.2-0.2-3.1-0.4-5.6-0.4h-1.6c-1.2,0-2.2,0.1-2.9,0.3c-0.2,5.1-0.2,9.8-0.2,13.9c0,0.8,0.1,2.9,0.1,3.8
		v0.1c-0.1,0.2-0.1,0.4-0.1,0.5v5.7c0,0.4,1.5,0.8,4.5,1.1l6.9,0.8h0.1c0.2-0.1,0.5-0.3,1.1-0.9C154.3,40.4,155.3,37.2,155.3,32.4z"
		/>
	<path class="st1" d="M184.3,44.2c0,0.3-0.5,0.8-1.4,1.7c-0.6,0.6-1.2,1.1-1.9,1.7h-0.3c-0.8-0.6-1.5-1.1-2.2-1.6
		c-1.2-0.9-1.8-1.8-1.8-2.7v-0.1c0-0.1-0.1-0.2-0.2-0.2c-0.3,0-1.2,0.8-2.5,2.2c-0.4,0.5-0.8,0.9-1.1,1.3c-0.5,0.6-1,0.9-1.4,0.9
		h-0.2c-3.5-1-5.3-3.9-5.3-8.8V28.5c0-1.6,0.8-3.2,2.3-4.7c0.8-0.8,2.2-1.8,4.4-3.1c1.1-0.8,2-1.1,2.5-1.1c0.4,0,1,0.2,1.9,0.6
		c1.1,0.5,1.7,0.8,1.8,0.8c0.5,0,0.8,0,1,0.1c-0.1,0,0.1,0.2,0.9,0.6c0.8,0.2,1.8,0.3,1.8,0.9v0.2c-0.6,0.7-1,1.5-1.1,2.8
		c0,1.6-0.1,4.4-0.1,7.1c0,4.4,0.1,7.1,0.3,8c0.3,1.2,1.2,2.3,2.8,3.4C184.3,44.1,184.3,44.1,184.3,44.2L184.3,44.2z M176.7,40.5
		V26.1c0-0.4-0.1-0.7-0.2-0.7c-0.8-0.4-1.5-0.8-2.3-1.1c-1-0.4-1.8-0.7-2.4-0.7c-0.5,0-0.9,0.5-1,1.5c-0.2,1.3-0.4,2-0.4,2v8.9
		c0,2.9,0.8,5,2.3,6.3c0.5,0.3,0.9,0.6,1.2,0.6c0.4,0,0.9-0.3,1.6-0.9S176.7,40.9,176.7,40.5z"/>
	<path class="st1" d="M198.3,44.1c0,0.3-0.6,1-1.8,2.2c-1.2,1.1-1.9,1.7-2.4,1.7c-0.6,0-1.3-0.3-2.2-1c-0.6-0.5-1.2-1-1.8-1.5
		c-0.2-0.2-0.4-0.7-0.7-1.2v-2.3c0-1.4,0-3.6,0.1-6.5c0.1-2.8,0.1-5,0.1-6.4v-1.4c0-1.1,0-2-0.1-2.8c0,0-0.4-0.3-1-0.8
		c-0.5-0.3-0.8-0.7-0.8-1c0-0.5,0.7-1.1,1.9-1.9c1.3-0.8,2-1.4,2-1.9v-0.2c-0.6-0.4-1.1-0.9-1.7-1.4c-0.8-0.7-1.2-1.2-1.2-1.6
		c0-0.5,0.6-1.2,1.6-2.1c1.1-1,1.9-1.5,2.2-1.5h0.2c0.8,0.6,1.5,1.2,2.3,1.9c0.8,0.6,1.2,1.1,1.2,1.3c0,0.5-1.1,1.7-3.4,3.3v0.2
		c0,0.3,0.6,0.8,1.8,1.3c1.2,0.6,1.9,1.1,1.9,1.5c0,0.2-0.2,0.7-0.8,1.2c-0.5,0.6-0.8,1.1-0.9,1.6v0.7c0,0.2,0,1.3-0.2,3.3
		c-0.1,2-0.1,3.1-0.1,3.4V41c0.1,0.5,0.8,1.1,1.9,1.7C197.8,43.2,198.3,43.7,198.3,44.1z"/>
	<path class="st1" d="M202.9,44.7c0-0.4,0.6-1.1,0.6-1.5v-1.1c0-0.1,0-0.7,0.1-1.7c0-1.1,0.1-1.6,0.1-1.7v-0.1c0,0-0.1-0.6-0.2-0.7
		v-3.6c0-1.2,0.1-1.9,0.2-2.5v-8.4c0-2,0-3.2-0.2-3.7c-0.3-1.4-1-2.4-2.2-3.2c-0.2-0.2-0.4-0.2-0.7-0.4c-0.4-0.2-0.6-0.4-0.6-0.6
		c0-0.4,0.6-0.9,1.7-1.5c1.2-0.8,2-1.1,2.4-1.1c0.6,0,1.3,0.3,2,1c0.5,0.5,1,1,1.6,1.5c0,0,0,0,0.1,0c2.2-2.5,3.5-3.8,3.8-4.1
		c0.5-0.4,1.3-1,2.4-1.7v0.1c0,0-0.3,0.5-1.1,1.3c-1.8,2-3,4.4-3.6,7.2c-0.5,5-0.7,10.4-0.7,16.2c0,0.7,0,1.6,0.1,2.9
		c0,1.2,0.1,2.2,0.1,2.8v0.7c0,0.5,0.8,0.9,2.2,1.2c1.5,0.4,2.2,0.8,2.2,1.2c0,0.5-1.2,1.9-3.5,4.2h-0.3c-0.2,0-1.3-0.4-3.2-1.2
		c-2-0.8-3-1.2-3-1.3C202.9,44.8,202.9,44.6,202.9,44.7z"/>
	<path class="st1" d="M239,23.2c0,0.1-0.2,0.5-0.5,0.9c-0.3,0.4-0.6,0.6-0.6,0.7c-0.1,0.1-0.1,0.6-0.1,1.6
		c-0.2,5.9-0.3,10.1-0.3,12.3c0,0.8,0.3,3.6,1,8.2v0.2c-1.2,1.6-3.6,4-7,7.1c-0.7,0.5-1.6,1.2-2.8,2.2h-0.2c-0.7,0-1.6-0.2-2.8-0.8
		c-1-0.4-1.8-0.8-2.8-1.2c-1.1-0.4-2.2-1-3.6-1.9c-0.1,0-0.1-0.1-0.1-0.2v-0.1c0-0.7,1-1.9,3.2-3.7h0.4c0.5,0,1.3,0.2,2.2,0.8
		c1.4,0.7,2,1,2.2,1.1c2.1,0.8,4,1.2,5.5,1.2c0.7,0,1.5-1,1.5-1.7c0-0.9-0.4-2.2-1-3.8l-0.4-4l-0.1-0.2c-0.2,0-0.2,0.1-0.3,0.2
		c-1.9,1.9-3.9,3.7-6,5.3c-0.2,0.2-0.5,0.3-0.6,0.3c-0.1,0-0.3-0.1-0.5-0.2c-0.2-0.2-0.4-0.3-0.5-0.3c-4.3-1.1-6.4-1.9-6.4-2.6
		c0-0.5,0.7-1.3,0.7-1.8v-0.1c0-0.2,0-0.7,0.1-1.4v-1.5c0-0.9-0.1-2.2-0.1-4s0-3.1,0-3.9v-0.1c0,0.1,0-0.2,0.1-0.7V31
		c0-0.2,0-0.5,0-0.9c0-0.2,0-0.5,0-0.9v-0.8c0-0.8-0.1-1.5-0.2-2c-0.1-0.3-0.5-0.7-1.2-1.1c-0.7-0.5-1.1-0.9-1.1-1.1
		c0-0.5,0.6-1.1,1.8-1.9c1.2-0.8,2.1-1.2,2.6-1.2c0.7,0,1.4,0.4,2.2,1c0.8,0.7,1.2,1.3,1.2,2l-0.1,6l0,11.1c0,0.2,0.2,0.4,0.8,0.6
		c0.3,0.1,0.6,0.2,0.9,0.2c1.8,0.5,3,0.8,3.5,0.8c0.3,0,1-0.6,1.9-1.7c0.6-0.6,1.1-1.2,1.6-1.8l0.1-1c0-1.1,0-1.7,0-1.9
		c0-0.6,0-2.2-0.1-4.7c0-2.6,0-4.5,0-5.9c-0.1-0.2-0.6-0.5-1.4-0.8c-0.7-0.4-1-0.7-1-1c0-0.2,0.6-0.9,1.9-1.9s2.1-1.5,2.5-1.5h0.5
		C237.7,22.2,239,23,239,23.2z"/>
</g>
</svg>
