<svg id="logo" data-name="logo" xmlns="http://www.w3.org/2000/svg" viewBox="0 0 238.9 49.9"><title>headerLogo</title><g style="isolation:isolate"><path d="M27.2,23.4q0,0.6-2.7,2.4c-1.8,1.2-2.6,1.8-2.6,2a18.94,18.94,0,0,0,.6,1.8,47.76,47.76,0,0,1,.4,6.6q0,5.1-.6,11.7c-0.1.6-1.8,2.1-4.9,4.5a17.54,17.54,0,0,0-1.8,1.5c-0.8.7-1.6,1.3-2.5,2.1a5.58,5.58,0,0,1-2.6,1.3H10a22.09,22.09,0,0,1-6.4-3.5A7.86,7.86,0,0,1,.7,47.5a10.43,10.43,0,0,1,1.1-5.1c1.2-2.2,4.1-4.9,8.3-8.2A22.73,22.73,0,0,1,13,32.3c1-.7,1.6-1.2,1.6-1.5,0-.5-1.1-0.9-3.1-1.2-1.3-.1-2.6-0.2-3.8-0.2-0.8,0-2.4.2-2.6,0.2s-0.4,0-.4-0.2a18.46,18.46,0,0,1,2.2-2A25,25,0,0,0,9.5,25a1.24,1.24,0,0,0,.2-0.3c0.1-.2,1.2-1.3,3.4-3.5a6.93,6.93,0,0,1,1.5-1.4,2.23,2.23,0,0,0,1-1.6c0-.4-0.4-0.5-1.1-0.5H4.3a1.88,1.88,0,0,0-.8-0.2c-0.7,0-1.2.5-1.9,1.4S0.5,20.3.2,20.3a0.2,0.2,0,0,1-.1-0.2,1.92,1.92,0,0,1,.4-1.2c0.2-.4.6-0.7,0.8-1.1,0.6-1,1.5-2.3,2.4-3.8,0.7-1,1.2-2,1.9-3A9.52,9.52,0,0,1,8.1,8.3H8.2a1.09,1.09,0,0,1-.1.5L6.5,11.6v0.3c0,0.3,0,.5.2,0.5,1.8,0.1,3.4.1,4.8,0.1,0.8,0,2.5-.1,3.1-0.1s2,0.1,2.6.1c1,0,3.2-.1,4.1-0.1h2.1c0.1,0,.1.1,0.1,0.3a18.22,18.22,0,0,0-2,2,45.5,45.5,0,0,1-5.2,5.6,46.47,46.47,0,0,0-3.7,3.8c0,0.2.2,0.4,0.8,0.4l5.2,0.8a1.91,1.91,0,0,1,1.2.7,2.56,2.56,0,0,0,1.2.6h0.3L23,25.4a4.89,4.89,0,0,0,1.9-1A4.28,4.28,0,0,1,27.2,23.4ZM16.9,41.2V34.7c-0.1-1.9-.5-2.9-1-2.9a2.58,2.58,0,0,0-1.7.8,11.19,11.19,0,0,1-1.7,1.2l-0.2.2a26.58,26.58,0,0,0-4.7,4.3,8.81,8.81,0,0,0-2.1,5.8,6.29,6.29,0,0,0,2.1,4.8,26.21,26.21,0,0,0,4.6,2.8,5.72,5.72,0,0,0,2.5.8c1.3,0,2-1.8,2-5.2V43.8C16.8,42.2,16.9,41.3,16.9,41.2Zm23.6,8.3c0.8-1.6,1.9-3.2,1.9-4.8,0-.3.1-2.2,0.1-5.5,0.1-3.1.1-4.9,0.1-5.5V31.4c0-3.4-.4-5.6-1.4-6.2-0.8-.4-1.9-1-3.4-1.7H37.6c-1.1,0-2.1,1.8-2.1,3V41.4a2.54,2.54,0,0,0,1.4.9c0.9,0.4,1.4.8,1.4,1.2a1.62,1.62,0,0,1-.4,1l-3,2.9a1.69,1.69,0,0,1-.5.2,25.59,25.59,0,0,1-4-2.1,4.32,4.32,0,0,1-.9-0.6c0-.3.8-1.7,0.8-2.1V40.3c0-1.4,0-3.5.1-6.2s0.1-4.9.1-6.3c0-2.5-.1-5.4-0.2-8.8a3,3,0,0,0-1.6-2.5,8.27,8.27,0,0,1-1.5-1.3V15c1.6-1.8,2.9-2.6,3.9-2.6a2.38,2.38,0,0,1,1.4.6,2.56,2.56,0,0,0,1.2.7,1.48,1.48,0,0,0,1.1-1.2A31.73,31.73,0,0,1,39,8.8h0.3V9a20.37,20.37,0,0,0-2.6,4,12.13,12.13,0,0,0-.9,4.6,8.54,8.54,0,0,0-.1,1.5v4.3c0,0.2.1,0.2,0.3,0.2l2.8-2.1c1.4-1.1,2.1-1.6,2.5-1.6,3.9,1,5.9,2.6,6.1,4.8,0,0.1.1,0.8,0.1,2s0.1,2,.1,2.3v1c0-.2-0.1,2.4-0.2,8-0.1,5.1-2.9,9.9-8,14.6a19.82,19.82,0,0,1-2,1.6H37.2c0.1-.6,1.2-2.1,3.3-4.7h0ZM63,44.1c0,0.3-.6,1-1.8,2.2A5.41,5.41,0,0,1,58.8,48a3.78,3.78,0,0,1-2.2-1c-0.6-.5-1.2-1-1.9-1.5-0.1-.2-0.4-0.7-0.7-1.2V42c0-1.4,0-3.6.1-6.5s0.1-5,.1-6.4V27.7a23.52,23.52,0,0,0-.1-2.8,9.78,9.78,0,0,1-1.1-.8,1.43,1.43,0,0,1-.8-1c0-.5.7-1.1,2-1.9s2-1.4,2-1.9V19.1a10.7,10.7,0,0,1-1.6-1.4,2.79,2.79,0,0,1-1.2-1.6c0-.5.6-1.2,1.6-2.1a5.63,5.63,0,0,1,2.2-1.5h0.2c0.8,0.6,1.5,1.2,2.3,1.9a3,3,0,0,1,1.2,1.3c0,0.5-1.1,1.7-3.4,3.3v0.2c0,0.3.6,0.8,1.8,1.3s1.9,1.1,1.9,1.5a2,2,0,0,1-.8,1.2,3.76,3.76,0,0,0-.9,1.6v0.7c0,0.2,0,1.3-.1,3.3s-0.1,3.1-.1,3.4V41a3.57,3.57,0,0,0,1.9,1.7C62.3,43.3,63,43.7,63,44.1Zm15,5.4c0.8-1.6,1.9-3.2,1.9-4.8,0-.3.1-2.2,0.1-5.5,0.1-3.1.1-4.9,0.1-5.5V31.4c0-3.4-.4-5.6-1.4-6.2-0.8-.4-1.9-1-3.4-1.7H75.1c-1.1,0-2.1,1.8-2.1,3V41.4a2.54,2.54,0,0,0,1.4.9c0.9,0.4,1.4.8,1.4,1.2a1.62,1.62,0,0,1-.4,1l-3,2.9a1.69,1.69,0,0,1-.5.2,25.59,25.59,0,0,1-4-2.1,4.32,4.32,0,0,1-.9-0.6c0-.3.8-1.7,0.8-2.1V40.3c0-1.4,0-3.5.1-6.2s0.1-4.9.1-6.3c0-2.5-.1-5.4-0.2-8.8a3,3,0,0,0-1.6-2.5,8.27,8.27,0,0,1-1.5-1.3V15c1.6-1.8,2.9-2.6,3.9-2.6A2.38,2.38,0,0,1,70,13a2.56,2.56,0,0,0,1.2.7,1.48,1.48,0,0,0,1.1-1.2,31.73,31.73,0,0,1,4.2-3.7h0.3V9a20.37,20.37,0,0,0-2.6,4,12.13,12.13,0,0,0-.9,4.6,8.54,8.54,0,0,0-.1,1.5v4.3c0,0.2.1,0.2,0.3,0.2l2.8-2.1c1.4-1.1,2.1-1.6,2.5-1.6,3.9,1,5.9,2.6,6.1,4.8,0,0.1.1,0.8,0.1,2s0.1,2,.1,2.3v1c0-.2-0.1,2.4-0.2,8-0.1,5.1-2.9,9.9-8,14.6a19.82,19.82,0,0,1-2,1.6H74.7c0.1-.6,1.2-2.1,3.3-4.7h0Zm35.2-6.3c0,0.5-.6,1.4-1.9,2.7a14.63,14.63,0,0,1-2.4,2.1h-0.2a3.08,3.08,0,0,1-2.1-1.2c-0.4-.6-0.8-1.1-1.2-1.6L105,42.9h-0.3L103,44.6c-1.9,1.9-3.1,2.9-3.7,2.9a19,19,0,0,1-4.2-1.2,12.36,12.36,0,0,1-3.4-1.5c0-.8,1.1-1.8,1.1-2.4V30a18.8,18.8,0,0,0-.1-3.4l-0.4-.4-2.1-1a0.34,0.34,0,0,1-.2-0.3c0-.4.6-1.2,1.8-2.2s2-1.6,2.4-1.6a7.46,7.46,0,0,1,1.9.7c1,0.5,1.6.7,1.8,0.8L98,22.8v4.3c0,1.2,0,3.2-.1,5.8v6.4c0,0.3.1,0.9,0.2,1.9a10,10,0,0,1,1.4.8,26.28,26.28,0,0,1,3,.9,6.14,6.14,0,0,0,1.4-1.2,4.28,4.28,0,0,0,1.2-1.5l0.1-.2V26.5a0.66,0.66,0,0,0-.4-0.8l-1.9-1a0.42,0.42,0,0,1-.3-0.4c0-.1.1-0.2,0.1-0.3l3.9-3.2a1.29,1.29,0,0,1,.8-0.2,1.58,1.58,0,0,1,.4.1l3.2,1.6a0.46,0.46,0,0,1,.3.5c0,0.4-1.1,1.7-1.1,2.9-0.3,3.9-.4,8.1-0.4,12.8a7.49,7.49,0,0,0,.5,3.1,2.27,2.27,0,0,0,2.1,1.8,6.6,6.6,0,0,0,1.1-.4v0.2h-0.3Z" transform="translate(-0.1 -7.4)" style="fill:#3280ed"/></g><path d="M160.9,28.1a29.26,29.26,0,0,1-.4,6,9.22,9.22,0,0,1-2.6,5.2c-2,1.8-4.5,3.9-7.6,6.4L149,46.9a2.68,2.68,0,0,1-1.6.8h-0.6c-1.3-.3-3.4-0.7-6.2-1.1-1.8-.2-4.6-0.6-8.1-1.2V45.3c0-.5,1-1.7,1.1-2.2,0.2-1.3.3-4.7,0.4-10.1,0-.2.1-0.8,0.1-1.7V28.8s0-2.3-.2-4.1-0.1-3.2-.1-4a2.61,2.61,0,0,1,1.4-2.1,3.77,3.77,0,0,0,1.4-1.1c0-.3-0.8-0.5-2.4-0.7-1.2,0-2.4-.1-3.7-0.2-3.5-.2-5.3-1.1-5.3-2.6V13.7a5.9,5.9,0,0,1,.2-1.4,8.45,8.45,0,0,1,1.8-2.8c1.2-1.4,1.9-2.1,2.3-2.1h1c0,0.5-.9,1.4-0.9,2V9.5c0,1.5,1.1,2.3,3.5,2.5,3,0.2,5.2.3,6.7,0.4,2.7,0.1,5.4.1,8,.2a52.5,52.5,0,0,1,8.1,1c0.5,0.2,1.1.7,2,1.2a9.56,9.56,0,0,1,2.3,4.6c0.1,1.8.2,3.5,0.2,5.2a17.21,17.21,0,0,1,.1,2.8v0.7h0.4Zm-5.6,4.3a59.84,59.84,0,0,0-.5-9.1,15.29,15.29,0,0,0-.4-3,5.83,5.83,0,0,0-4.4-3.1,35,35,0,0,0-5.6-.4h-1.6a11.19,11.19,0,0,0-2.9.3c-0.2,5.1-.2,9.8-0.2,13.9,0,0.8.1,2.9,0.1,3.8v0.1a1.09,1.09,0,0,0-.1.5v5.7c0,0.4,1.5.8,4.5,1.1l6.9,0.8h0.1a4.52,4.52,0,0,0,1.1-.9c2-1.7,3-4.9,3-9.7h0Zm29,11.8c0,0.3-.5.8-1.4,1.7-0.6.6-1.2,1.1-1.9,1.7h-0.3c-0.8-.6-1.5-1.1-2.2-1.6a3.63,3.63,0,0,1-1.8-2.7V43.2a0.22,0.22,0,0,0-.2-0.2c-0.3,0-1.2.8-2.5,2.2-0.4.5-.8,0.9-1.1,1.3a2.07,2.07,0,0,1-1.4.9h-0.2c-3.5-1-5.3-3.9-5.3-8.8V28.5a6.78,6.78,0,0,1,2.3-4.7,23.4,23.4,0,0,1,4.4-3.1,4.88,4.88,0,0,1,2.5-1.1,5.49,5.49,0,0,1,1.9.6c1.1,0.5,1.7.8,1.8,0.8a2.51,2.51,0,0,1,1,.1c-0.1,0,.1.2,0.9,0.6,0.8,0.2,1.8.3,1.8,0.9v0.2a4.5,4.5,0,0,0-1.1,2.8c0,1.6-.1,4.4-0.1,7.1a57.72,57.72,0,0,0,.3,8,6.17,6.17,0,0,0,2.8,3.4C184.3,44.1,184.3,44.1,184.3,44.2Zm-7.6-3.7V26.1a0.79,0.79,0,0,0-.2-0.7,24,24,0,0,0-2.3-1.1,7.54,7.54,0,0,0-2.4-.7c-0.5,0-.9.5-1,1.5a18.08,18.08,0,0,1-.4,2V36c0,2.9.8,5,2.3,6.3a3.29,3.29,0,0,0,1.2.6,2.91,2.91,0,0,0,1.6-.9,2.85,2.85,0,0,0,1.2-1.5h0Zm21.6,3.6c0,0.3-.6,1-1.8,2.2s-1.9,1.7-2.4,1.7a3.78,3.78,0,0,1-2.2-1l-1.8-1.5a9.67,9.67,0,0,1-.7-1.2V42c0-1.4,0-3.6.1-6.5s0.1-5,.1-6.4V27.7a23.52,23.52,0,0,0-.1-2.8s-0.4-.3-1-0.8a1.43,1.43,0,0,1-.8-1c0-.5.7-1.1,1.9-1.9s2-1.4,2-1.9V19.1a21,21,0,0,1-1.7-1.4,2.79,2.79,0,0,1-1.2-1.6c0-.5.6-1.2,1.6-2.1a5.63,5.63,0,0,1,2.2-1.5h0.2c0.8,0.6,1.5,1.2,2.3,1.9a3,3,0,0,1,1.2,1.3c0,0.5-1.1,1.7-3.4,3.3v0.2c0,0.3.6,0.8,1.8,1.3s1.9,1.1,1.9,1.5a2,2,0,0,1-.8,1.2,3.76,3.76,0,0,0-.9,1.6v0.7c0,0.2,0,1.3-.2,3.3s-0.1,3.1-.1,3.4V41a3.57,3.57,0,0,0,1.9,1.7C197.8,43.2,198.3,43.7,198.3,44.1Zm4.6,0.6c0-.4.6-1.1,0.6-1.5V42.1c0-.1,0-0.7.1-1.7a13.3,13.3,0,0,1,.1-1.7V38.6a2.54,2.54,0,0,0-.2-0.7V34.3a13.8,13.8,0,0,1,.2-2.5V23.4a14.89,14.89,0,0,0-.2-3.7,4.85,4.85,0,0,0-2.2-3.2,4.35,4.35,0,0,0-.7-0.4,0.86,0.86,0,0,1-.6-0.6c0-.4.6-0.9,1.7-1.5a5.45,5.45,0,0,1,2.4-1.1,2.93,2.93,0,0,1,2,1c0.5,0.5,1,1,1.6,1.5h0.1c2.2-2.5,3.5-3.8,3.8-4.1A27.48,27.48,0,0,1,214,9.6V9.7a7.78,7.78,0,0,1-1.1,1.3,15.36,15.36,0,0,0-3.6,7.2c-0.5,5-.7,10.4-0.7,16.2,0,0.7,0,1.6.1,2.9s0.1,2.2.1,2.8v0.7c0,0.5.8,0.9,2.2,1.2s2.2,0.8,2.2,1.2-1.2,1.9-3.5,4.2h-0.3a21.31,21.31,0,0,1-3.2-1.2,17.87,17.87,0,0,1-3-1.3c-0.3-.1-0.3-0.3-0.3-0.2h0ZM239,23.2a2.79,2.79,0,0,1-.5.9,7.68,7.68,0,0,0-.6.7,4.58,4.58,0,0,0-.1,1.6c-0.2,5.9-.3,10.1-0.3,12.3,0,0.8.3,3.6,1,8.2v0.2a62.14,62.14,0,0,1-7,7.1c-0.7.5-1.6,1.2-2.8,2.2h-0.2a6.34,6.34,0,0,1-2.8-.8c-1-.4-1.8-0.8-2.8-1.2a18.18,18.18,0,0,1-3.6-1.9c-0.1,0-.1-0.1-0.1-0.2V52.2c0-.7,1-1.9,3.2-3.7h0.4a4.21,4.21,0,0,1,2.2.8l2.2,1.1a16.12,16.12,0,0,0,5.5,1.2,1.92,1.92,0,0,0,1.5-1.7,12.56,12.56,0,0,0-1-3.8l-0.4-4-0.1-.2a0.34,0.34,0,0,0-.3.2,59.86,59.86,0,0,1-6,5.3,1.1,1.1,0,0,1-.6.3,1.69,1.69,0,0,1-.5-0.2,0.91,0.91,0,0,0-.5-0.3c-4.3-1.1-6.4-1.9-6.4-2.6,0-.5.7-1.3,0.7-1.8V42.7a9.51,9.51,0,0,1,.1-1.4V39.8c0-.9-0.1-2.2-0.1-4v-4a6.89,6.89,0,0,1,.1-0.7V28.4a10.32,10.32,0,0,0-.2-2,2.59,2.59,0,0,0-1.2-1.1,2.59,2.59,0,0,1-1.1-1.1c0-.5.6-1.1,1.8-1.9a6,6,0,0,1,2.6-1.2,3.91,3.91,0,0,1,2.2,1,2.73,2.73,0,0,1,1.2,2l-0.1,6V41.2a0.89,0.89,0,0,0,.8.6,2.92,2.92,0,0,0,.9.2,20,20,0,0,0,3.5.8,4.64,4.64,0,0,0,1.9-1.7c0.6-.6,1.1-1.2,1.6-1.8l0.1-1V36.4c0-.6,0-2.2-0.1-4.7V25.8a3.08,3.08,0,0,0-1.4-.8,1.52,1.52,0,0,1-1-1,5.73,5.73,0,0,1,1.9-1.9,6.49,6.49,0,0,1,2.5-1.5h0.5c2.1,1.6,3.4,2.4,3.4,2.6h0Z" transform="translate(-0.1 -7.4)" style="fill:#3280ed"/></svg>
